<svg width="18" height="18" viewBox="0 0 18 18" fill="none" xmlns="http://www.w3.org/2000/svg">
<path d="M13.7768 3.16828C14.0714 2.92802 14.5056 2.94496 14.7802 3.21955C15.0548 3.49414 15.0717 3.92839 14.8315 4.22297L14.7802 4.2801L10.0605 8.99982L14.7802 13.7196L14.8315 13.7767C15.0717 14.0713 15.0548 14.5055 14.7802 14.7801C14.5056 15.0547 14.0714 15.0716 13.7768 14.8314L13.7197 14.7801L8.99994 10.0604L4.28022 14.7801C3.98732 15.073 3.51256 15.073 3.21967 14.7801C2.92678 14.4872 2.92678 14.0124 3.21967 13.7196L7.9394 8.99982L3.21967 4.2801L3.1684 4.22297C2.92814 3.92839 2.94508 3.49414 3.21967 3.21955C3.49426 2.94496 3.92851 2.92802 4.22309 3.16828L4.28022 3.21955L8.99994 7.93928L13.7197 3.21955L13.7768 3.16828Z" fill="white"/>
</svg>
