<svg width="18" height="18" viewBox="0 0 18 18" fill="none" xmlns="http://www.w3.org/2000/svg">
<path d="M11.25 1.5C11.7545 1.5 12.2204 1.66585 12.5957 1.94629C12.6769 2.00699 12.737 2.05767 12.7812 2.10059H12.7822L15.8799 5.19336L15.875 5.19727C16.2611 5.60122 16.5 6.14708 16.5 6.75V14.25C16.5 15.4926 15.4926 16.5 14.25 16.5H6.75C6.16822 16.5 5.63964 16.2774 5.24023 15.915L5.22559 15.9307L2.2627 12.9355C1.79583 12.5233 1.5 11.9218 1.5 11.25V3.75C1.5 2.50736 2.50736 1.5 3.75 1.5H11.25ZM6.75 6C6.33579 6 6 6.33579 6 6.75V14.25C6 14.6642 6.33579 15 6.75 15H14.25C14.6642 15 15 14.6642 15 14.25V6.75C15 6.33579 14.6642 6 14.25 6H6.75ZM3 11.25C3 11.435 3.06773 11.6036 3.17871 11.7344L4.5 13.0664V6.75C4.5 6.40393 4.58014 6.07707 4.71973 5.78418L3 4.06152V11.25ZM5.77832 4.72168C6.07262 4.58044 6.40175 4.5 6.75 4.5H13.0625L11.7695 3.20898C11.6348 3.07952 11.4516 3 11.25 3H4.05957L5.77832 4.72168Z" fill="#745EF5"/>
</svg>
