<svg width="18" height="18" viewBox="0 0 18 18" fill="none" xmlns="http://www.w3.org/2000/svg">
<path d="M8.24902 1.64685C9.31841 1.01152 10.6695 1.10208 11.6445 1.87439L15.3623 4.8197C16.0806 5.38868 16.4999 6.25496 16.5 7.17126V10.6644C16.4999 11.5593 16.1001 12.4071 15.4102 12.9769L11.6865 16.0511C10.6946 16.8699 9.29085 16.9655 8.19727 16.2885L2.9209 13.0219C2.03766 12.475 1.50003 11.5099 1.5 10.4711V7.36365C1.50015 6.30539 2.05796 5.32509 2.96777 4.78455L8.24902 1.64685ZM10.5 15.0502C10.5805 15.0058 10.6586 14.955 10.7314 14.8949L14.4551 11.8207C14.8001 11.5358 14.9999 11.1118 15 10.6644V7.17126C14.9999 6.71326 14.7906 6.27994 14.4316 5.99548L10.7129 3.05017C10.6453 2.99663 10.574 2.94991 10.5 2.90955V15.0502ZM3.7334 6.07458C3.27884 6.34488 3.00015 6.83479 3 7.36365V10.4711C3.00003 10.9904 3.26849 11.473 3.70996 11.7465L8.98633 15.0131C8.99058 15.0157 8.99573 15.0173 9 15.0199V2.94568L3.7334 6.07458Z" fill="#745EF5"/>
</svg>
