<svg width="24" height="24" viewBox="0 0 24 24" fill="none" xmlns="http://www.w3.org/2000/svg">
<path d="M19 9.20949L13 12.5845V19.2896L18.4902 16.2017C18.8051 16.0246 19 15.6909 19 15.3296V9.20949ZM12.4902 4.42336C12.1858 4.25213 11.8142 4.25213 11.5098 4.42336L6.03906 7.49953L12 10.8521L17.96 7.49953L12.4902 4.42336ZM5.00879 15.4644C5.05049 15.7724 5.23436 16.0468 5.50977 16.2017L11 19.2896V12.5845L5 9.20949V15.3296L5.00879 15.4644ZM21 15.3296C21 16.4134 20.4153 17.4135 19.4707 17.9448L13.4707 21.3198C12.5575 21.8335 11.4425 21.8335 10.5293 21.3198L4.5293 17.9448C3.64358 17.4466 3.07438 16.5367 3.00684 15.5318L3 15.3296V8.66945C3 7.58569 3.58475 6.58657 4.5293 6.0552L10.5293 2.6802C11.4425 2.1665 12.5575 2.1665 13.4707 2.6802L19.4707 6.0552C20.4153 6.58657 21 7.58569 21 8.66945V15.3296Z" fill="white" fill-opacity="0.6"/>
</svg>
