<svg width="36" height="36" viewBox="0 0 36 36" fill="none" xmlns="http://www.w3.org/2000/svg">
<path d="M16 9C16.5523 9 17 9.44772 17 10C17 10.5523 16.5523 11 16 11C15.4477 11 15 10.5523 15 10C15 9.44772 15.4477 9 16 9Z" fill="#745EF5"/>
<path fill-rule="evenodd" clip-rule="evenodd" d="M15.9229 2.88379C20.0864 2.88392 23.4609 6.25959 23.4609 10.4229C23.4607 13.0018 22.1636 15.2742 20.1924 16.6318V18.4258C20.5042 18.4254 20.8769 18.4231 21.2803 18.4111C22.4292 18.3769 23.7401 18.2813 24.627 18.0596C25.4389 17.8566 26.089 17.4395 26.5439 17.0596C26.7694 16.8713 26.9402 16.6971 27.0518 16.5742C27.1072 16.5131 27.1476 16.4654 27.1719 16.4355C27.1839 16.4208 27.1922 16.4105 27.1963 16.4053L27.3008 16.2852C27.5644 16.0271 27.9539 15.9319 28.3125 16.0498C28.7225 16.1849 29 16.5683 29 17C29 17.4756 28.9647 17.9476 28.8984 18.4131H32C32.2652 18.4131 32.5195 18.5185 32.707 18.7061C32.8944 18.8936 33 19.148 33 19.4131C32.9999 22.9296 31.6029 26.3034 29.1162 28.79C26.6296 31.2765 23.2567 32.6738 19.7402 32.6738H15.6025C15.5421 32.6738 15.4832 32.6665 15.4258 32.6562C14.9951 32.6331 14.5626 32.5826 14.1328 32.4971C12.3534 32.1431 10.7192 31.2688 9.43652 29.9863C8.15396 28.7038 7.27988 27.0694 6.92578 25.29C6.57188 23.5109 6.75305 21.6655 7.44727 19.9893C8.01221 18.6254 8.8971 17.4245 10.0186 16.4814V15.208C9.42782 15.2754 8.82868 15.2596 8.23926 15.1572C7.27825 14.9901 6.36934 14.6007 5.58594 14.0195C4.80244 13.4382 4.16615 12.681 3.72754 11.8096C3.28892 10.938 3.05957 9.97574 3.05957 9C3.05957 8.44786 3.50749 8.00024 4.05957 8H8.7832C9.79235 5.02496 12.6069 2.88379 15.9229 2.88379ZM15.9229 4.88379C12.8639 4.88379 10.3838 7.36392 10.3838 10.4229L10.3896 10.6846C10.4504 11.9848 10.9605 13.1667 11.7686 14.083C11.9294 14.2656 12.0186 14.5008 12.0186 14.7441V16.9629C12.0184 17.2774 11.8698 17.5739 11.6182 17.7627C10.5913 18.5331 9.78748 19.5658 9.29492 20.7549C8.75226 22.0653 8.61002 23.5081 8.88672 24.8994C9.16353 26.2905 9.84734 27.569 10.8506 28.5723C11.8539 29.5755 13.1323 30.2594 14.5234 30.5361C14.8916 30.6093 15.2655 30.6522 15.6416 30.667C15.6676 30.668 15.6933 30.6709 15.7188 30.6738H19.7402C22.7263 30.6738 25.5906 29.4873 27.7021 27.376C29.5766 25.5015 30.7205 23.0328 30.9541 20.4131H28.3994C27.9063 21.7745 27.121 23.0262 26.0801 24.0703C24.2102 25.9458 21.673 27 19.0273 27H16C15.4477 27 15 26.5523 15 26C15 25.4477 15.4477 25 16 25H19.0273C21.1407 25 23.1687 24.1581 24.6641 22.6582C25.5381 21.7814 26.1848 20.7204 26.5742 19.5674C26.5677 19.5255 26.5636 19.4829 26.5625 19.4395C26.1374 19.6632 25.6538 19.8636 25.1123 19.999C23.9992 20.2773 22.5002 20.3756 21.3398 20.4102C20.7473 20.4278 20.2195 20.4296 19.8398 20.4268C19.6499 20.4254 19.4964 20.4231 19.3896 20.4209C19.3363 20.4198 19.2944 20.4187 19.2656 20.418C19.2513 20.4176 19.2402 20.4172 19.2324 20.417C19.2287 20.4169 19.2258 20.4161 19.2236 20.416H19.2197L19.1484 20.4102C18.6167 20.3871 18.1926 19.9504 18.1924 19.4131V16.084C18.1924 15.7272 18.3827 15.3976 18.6914 15.2188C20.2455 14.3192 21.3198 12.6908 21.4482 10.8037L21.4609 10.4229C21.4609 7.36384 18.9815 4.8839 15.9229 4.88379ZM5.17969 10C5.25573 10.3141 5.36745 10.6195 5.51367 10.9102C5.81189 11.5027 6.24462 12.0178 6.77734 12.4131C7.31012 12.8083 7.92845 13.0739 8.58203 13.1875C8.6971 13.2075 8.81285 13.221 8.92871 13.2314C8.62084 12.4681 8.43302 11.6431 8.39258 10.7793L8.38379 10.4229C8.38379 10.2811 8.38876 10.1398 8.39648 10H5.17969Z" fill="#745EF5"/>
</svg>
