<svg width="36" height="36" viewBox="0 0 36 36" fill="none" xmlns="http://www.w3.org/2000/svg">
<path fill-rule="evenodd" clip-rule="evenodd" d="M18.126 1.91602C18.7758 1.91601 19.3421 2.02419 19.8125 2.17285C21.3357 2.65444 21.6901 4.23651 21.4697 5.3623L21.1709 6.88867C22.9621 7.92665 24.167 9.86377 24.167 12.083C24.167 12.8117 24.0377 13.5101 23.7998 14.1562C25.076 15.2294 26.0615 16.6568 26.6279 18.291C28.1525 19.2491 28.9982 20.8312 29.2773 22.4844C29.6616 24.7617 29.013 27.3443 27.5068 28.9375C27.2621 29.1963 26.8985 29.3052 26.5517 29.2236C26.205 29.142 25.9279 28.8827 25.8242 28.542C25.6719 28.0416 25.5022 27.5897 25.3281 27.1836C25.0753 27.533 24.8012 27.8646 24.5049 28.1738C24.2673 28.4218 24.0964 28.7603 24.0156 29.1494C23.4383 31.9344 21.0626 34.0827 18.1514 34.083C15.2397 34.083 12.8643 31.9344 12.2871 29.1494C12.2063 28.7603 12.0355 28.4217 11.7978 28.1738C11.4271 27.7871 11.0909 27.3657 10.789 26.917C10.5733 27.3889 10.3613 27.9293 10.1748 28.542C10.0711 28.8825 9.79472 29.142 9.44823 29.2236C9.10152 29.3051 8.73789 29.1962 8.49315 28.9375C6.98691 27.3443 6.33838 24.7618 6.72264 22.4844C7.02631 20.6856 8.00098 18.972 9.791 18.0537C10.3686 16.5181 11.3217 15.1773 12.5361 14.1562C12.2981 13.51 12.167 12.8118 12.167 12.083C12.167 9.88439 13.3505 7.96282 15.1142 6.91797L14.7988 5.38281C14.5669 4.25005 14.9172 2.6482 16.456 2.16699C16.9231 2.021 17.4838 1.91607 18.126 1.91602ZM22.7783 15.9209C21.6777 17.2417 20.0207 18.083 18.167 18.083C16.314 18.0829 14.6581 17.242 13.5576 15.9219C13.0508 16.3928 12.6076 16.9404 12.2451 17.5488C12.5243 17.6873 12.7353 17.9542 12.789 18.2852C12.8771 18.8302 12.5059 19.3433 11.9609 19.4316C9.99676 19.7499 8.98127 21.1234 8.6953 22.8174C8.51309 23.8973 8.64588 25.0375 9.00877 26.0039C9.35985 25.2485 9.72524 24.6355 10.0537 24.1592C10.3413 23.7421 10.5987 23.4287 10.791 23.2148C10.887 23.1081 10.9675 23.0261 11.0264 22.9678C11.0555 22.9389 11.0793 22.9147 11.0976 22.8975C11.1068 22.8888 11.1158 22.8817 11.1221 22.876C11.1249 22.8733 11.1276 22.8711 11.1299 22.8691L11.1328 22.8652L11.1347 22.8643C11.1369 22.8659 11.1715 22.9023 11.8017 23.6094L11.1367 22.8633C11.549 22.4962 12.1805 22.5322 12.5478 22.9443C12.9137 23.3549 12.8791 23.9835 12.4717 24.3516L12.4707 24.3535L12.4687 24.3545L12.4668 24.3564C12.461 24.3619 12.45 24.3724 12.4346 24.3877C12.4018 24.4201 12.3478 24.4746 12.2783 24.5518C12.1917 24.648 12.0809 24.7803 11.9521 24.9482C12.2919 25.6321 12.7281 26.2528 13.2422 26.7891C13.776 27.346 14.1004 28.0417 14.2461 28.7441C14.6493 30.6891 16.2755 32.083 18.1514 32.083C20.0271 32.0826 21.6533 30.6887 22.0566 28.7441C22.2023 28.0418 22.5268 27.3459 23.0605 26.7891C23.5136 26.3162 23.9051 25.777 24.2246 25.1875C24.0207 24.9009 23.8449 24.6899 23.7207 24.5518C23.6513 24.4746 23.5981 24.4201 23.5654 24.3877C23.5495 24.372 23.5379 24.3618 23.5322 24.3564L23.456 24.2793C23.118 23.9055 23.1084 23.3292 23.4512 22.9443C23.8186 22.5321 24.451 22.4961 24.8633 22.8633L24.1982 23.6094C24.8634 22.8631 24.8652 22.8643 24.8652 22.8643L24.8672 22.8652L24.8691 22.8691C24.8714 22.8712 24.8749 22.8732 24.8779 22.876C24.8841 22.8816 24.8924 22.889 24.9014 22.8975C24.9197 22.9147 24.9444 22.9388 24.9736 22.9678C25.0324 23.026 25.1121 23.1083 25.208 23.2148C25.4003 23.4287 25.6585 23.7419 25.9463 24.1592C26.2747 24.6354 26.6392 25.2485 26.9902 26.0039C27.3531 25.0375 27.4869 23.8973 27.3047 22.8174C27.0187 21.1234 26.0031 19.75 24.039 19.4316C23.494 19.3433 23.1228 18.8302 23.2109 18.2852C23.2815 17.85 23.6237 17.5268 24.0361 17.459C23.6841 16.8861 23.2601 16.3687 22.7783 15.9209ZM18.167 8.08301C15.958 8.08325 14.167 9.87402 14.167 12.083C14.167 14.292 15.958 16.0828 18.167 16.083C20.3761 16.083 22.167 14.2921 22.167 12.083C22.167 9.87387 20.3761 8.08302 18.167 8.08301ZM18.126 3.91602C17.7046 3.91607 17.3451 3.98478 17.0527 4.07617C16.9423 4.1108 16.8607 4.17991 16.8008 4.31934C16.733 4.47726 16.7043 4.71508 16.7588 4.98145L17.0078 6.19531C17.3829 6.12186 17.7704 6.08304 18.167 6.08301C18.5439 6.08301 18.9129 6.11907 19.2705 6.18555L19.5068 4.97852C19.5587 4.71394 19.5278 4.47892 19.4599 4.32227C19.3997 4.18357 19.3193 4.11367 19.2099 4.0791C18.9156 3.98608 18.5524 3.91601 18.126 3.91602Z" fill="#745EF5"/>
</svg>
