<svg width="36" height="36" viewBox="0 0 36 36" fill="none" xmlns="http://www.w3.org/2000/svg">
<path d="M14.9999 9C15.5521 9.00008 15.9999 9.44777 15.9999 10C15.9999 10.5522 15.5521 10.9999 14.9999 11C14.4476 11 13.9999 10.5523 13.9999 10C13.9999 9.44772 14.4476 9 14.9999 9Z" fill="#745EF5"/>
<path d="M20.9999 9C21.5521 9.00008 21.9999 9.44777 21.9999 10C21.9999 10.5522 21.5521 10.9999 20.9999 11C20.4476 11 19.9999 10.5523 19.9999 10C19.9999 9.44772 20.4476 9 20.9999 9Z" fill="#745EF5"/>
<path fill-rule="evenodd" clip-rule="evenodd" d="M17.9999 3C22.4181 3.00008 25.9999 6.58177 25.9999 11C25.9999 13.2871 25.0387 15.3486 23.4999 16.8066V18.4619C23.8485 18.6666 24.1825 18.8912 24.4999 19.1338C24.5282 19.1175 24.5576 19.1025 24.5878 19.0889L24.6835 19.0518L24.7948 18.998C24.9261 18.9215 25.1159 18.7699 25.3515 18.5029C25.6473 18.1677 25.9402 17.7392 26.205 17.2979C26.4671 16.861 26.688 16.4349 26.8437 16.1162C26.9211 15.9576 26.9818 15.8267 27.0224 15.7373C27.0426 15.6928 27.0574 15.6581 27.0673 15.6357C27.0722 15.6247 27.0759 15.6164 27.078 15.6113C27.0791 15.6089 27.081 15.6064 27.081 15.6064C27.2255 15.2693 27.5428 15.0375 27.9081 15.0039C28.2735 14.9704 28.6284 15.14 28.8319 15.4453L27.9999 16C28.7669 15.4887 28.827 15.448 28.8319 15.4453L28.8349 15.4492C28.836 15.451 28.8372 15.4536 28.8388 15.4561C28.842 15.4609 28.8466 15.467 28.8515 15.4746C28.8616 15.4903 28.8757 15.5121 28.8925 15.5391C28.9263 15.5933 28.9723 15.6706 29.0282 15.7676C29.1399 15.9614 29.2903 16.2381 29.4521 16.583C29.7742 17.2698 30.1512 18.2447 30.3583 19.3838C30.7658 21.6249 30.5071 24.5307 27.9032 27.0244C27.581 28.77 26.4495 30.1903 24.9062 31.1865C23.0822 32.3638 20.6331 33 17.9999 33C15.3668 33 12.9176 32.3638 11.0937 31.1865C9.55024 30.1903 8.41779 28.7701 8.09562 27.0244C5.49212 24.5308 5.23408 21.6248 5.64152 19.3838C5.84863 18.2447 6.22559 17.2697 6.54777 16.583C6.70957 16.2381 6.85992 15.9614 6.9716 15.7676C7.02748 15.6706 7.07356 15.5932 7.10734 15.5391C7.12416 15.5121 7.13821 15.4903 7.14835 15.4746C7.15327 15.467 7.15786 15.4609 7.16105 15.4561C7.16263 15.4536 7.16382 15.4509 7.16496 15.4492L7.16789 15.4463C7.1741 15.4499 7.24174 15.4945 7.99992 16L7.16789 15.4463C7.37147 15.141 7.72632 14.9704 8.09171 15.0039C8.45689 15.0376 8.77335 15.2694 8.91789 15.6064C8.91789 15.6064 8.92076 15.609 8.92179 15.6113C8.92399 15.6164 8.92767 15.6247 8.93253 15.6357C8.94241 15.6581 8.95727 15.6929 8.97746 15.7373C9.01809 15.8267 9.07872 15.9576 9.15617 16.1162C9.31182 16.4349 9.53274 16.861 9.79484 17.2979C10.0596 17.7392 10.3526 18.1677 10.6484 18.5029C10.884 18.7699 11.0737 18.9215 11.205 18.998L11.3163 19.0518L11.412 19.0889C11.442 19.1024 11.4709 19.1177 11.4989 19.1338C11.8165 18.891 12.1511 18.6668 12.4999 18.4619V16.8066C10.9611 15.3486 9.99992 13.2872 9.99992 11C9.99992 6.58172 13.5816 3 17.9999 3ZM21.4999 18.1943C20.4426 18.7097 19.2553 19 17.9999 19C16.7446 19 15.5572 18.7096 14.4999 18.1943V19.0547C14.4999 19.4312 14.2878 19.7758 13.9521 19.9463C11.5479 21.1666 9.99997 23.4148 9.99992 26C9.99996 27.3713 10.7567 28.5881 12.1786 29.5059C13.612 30.431 15.6627 31 17.9999 31L18.4345 30.9932C20.5909 30.9273 22.4774 30.3732 23.8212 29.5059C25.2431 28.5881 25.9999 27.3712 25.9999 26C25.9999 23.4149 24.4519 21.1667 22.0478 19.9463C21.712 19.7759 21.5 19.4312 21.4999 19.0547V18.1943ZM8.02433 18.2324C7.86071 18.6776 7.70979 19.1886 7.60929 19.7412C7.37431 21.0336 7.41463 22.5381 8.23917 24.0039C8.55178 22.7316 9.15844 21.5756 9.98234 20.5859C9.66115 20.3625 9.38095 20.0888 9.14835 19.8252C8.74125 19.3637 8.37756 18.8231 8.08 18.3271C8.0611 18.2957 8.04281 18.2637 8.02433 18.2324ZM27.9198 18.3271C27.6223 18.8231 27.2586 19.3637 26.8515 19.8252C26.6187 20.089 26.338 20.3624 26.0165 20.5859C26.8405 21.5756 27.447 22.7315 27.7597 24.0039C28.5844 22.538 28.6255 21.0337 28.3905 19.7412C28.29 19.1886 28.1391 18.6776 27.9755 18.2324C27.957 18.2638 27.9387 18.2956 27.9198 18.3271ZM17.9999 12.6592C17.8891 12.6592 17.7409 12.7101 17.6239 12.8105C17.5089 12.9094 17.4999 12.9855 17.4999 13C17.4999 13.2234 17.4247 13.4403 17.287 13.6162L17.286 13.6182C17.286 13.6182 17.2839 13.6218 17.2821 13.624C17.2786 13.6285 17.2732 13.635 17.2665 13.6436C17.2529 13.6609 17.2325 13.6863 17.2069 13.7188C17.1557 13.7838 17.0818 13.8778 16.9911 13.9922C16.8098 14.2208 16.5598 14.5332 16.288 14.8682C15.9166 15.3258 15.4798 15.8528 15.1171 16.2627C15.9727 16.7323 16.955 17 17.9999 17C19.0445 17 20.0264 16.7321 20.8818 16.2627C20.5188 15.8528 20.0821 15.3258 19.7109 14.8682C19.4392 14.5334 19.19 14.2207 19.0087 13.9922C18.918 13.8779 18.8441 13.7838 18.7929 13.7188C18.7673 13.6863 18.747 13.6609 18.7333 13.6436C18.7266 13.6349 18.7212 13.6276 18.7177 13.623C18.7161 13.621 18.7138 13.6182 18.7138 13.6182L18.7128 13.6172C18.5751 13.4412 18.4999 13.2234 18.4999 13C18.4999 12.9854 18.4908 12.9093 18.3759 12.8105C18.259 12.7101 18.1108 12.6592 17.9999 12.6592ZM17.9999 5C14.6862 5 11.9999 7.68629 11.9999 11C11.9999 12.5463 12.5851 13.9557 13.5458 15.0195C13.8683 14.6599 14.3156 14.1246 14.7353 13.6074C15.001 13.28 15.2456 12.9736 15.4237 12.749C15.4654 12.6966 15.5033 12.6482 15.537 12.6055C15.6418 12.0586 15.955 11.6078 16.3202 11.2939C16.7682 10.9092 17.3706 10.6592 17.9999 10.6592C18.6293 10.6592 19.2317 10.9091 19.6796 11.2939C20.0447 11.6078 20.3571 12.0587 20.4618 12.6055C20.4956 12.6483 20.5343 12.6964 20.5761 12.749C20.7543 12.9737 20.9989 13.28 21.2646 13.6074C21.6841 14.1244 22.1305 14.6599 22.453 15.0195C23.4139 13.9556 23.9999 12.5465 23.9999 11C23.9999 7.68634 21.3136 5.00008 17.9999 5Z" fill="#745EF5"/>
</svg>
