<svg width="36" height="36" viewBox="0 0 36 36" fill="none" xmlns="http://www.w3.org/2000/svg">
<path d="M17.4003 21.2002C17.7114 20.9671 18.1243 20.9374 18.4609 21.1123L18.5995 21.2002L22.5995 24.2002C23.0412 24.5315 23.1309 25.1578 22.7997 25.5996C22.4684 26.0413 21.8421 26.1309 21.4003 25.7998L17.9999 23.249L14.5995 25.7998L14.5146 25.8574C14.0805 26.1187 13.5107 26.0136 13.2001 25.5996C12.8896 25.1854 12.9486 24.6091 13.3212 24.2656L13.4003 24.2002L17.4003 21.2002Z" fill="#745EF5"/>
<path fill-rule="evenodd" clip-rule="evenodd" d="M17.9999 4C21.3135 4.00009 23.9999 6.68635 23.9999 10C23.9999 11.3149 23.5746 12.5329 22.8564 13.5215C22.6097 13.8611 22.4999 14.1603 22.4999 14.4082V17.9707C23.2056 18.2871 23.8759 18.6789 24.4911 19.1396C24.5222 19.1213 24.5543 19.104 24.5878 19.0889L24.6835 19.0518L24.7948 18.998C24.9261 18.9215 25.1159 18.7699 25.3515 18.5029C25.6473 18.1677 25.9402 17.7392 26.205 17.2979C26.4671 16.861 26.688 16.4349 26.8437 16.1162C26.9211 15.9576 26.9817 15.8267 27.0224 15.7373C27.0426 15.6928 27.0574 15.6581 27.0673 15.6357C27.0722 15.6247 27.0759 15.6164 27.078 15.6113C27.0791 15.6089 27.081 15.6064 27.081 15.6064C27.2255 15.2693 27.5428 15.0375 27.9081 15.0039C28.2735 14.9704 28.6284 15.14 28.8319 15.4453L27.9999 16C28.7674 15.4883 28.8271 15.448 28.8319 15.4453L28.8349 15.4492C28.836 15.451 28.8372 15.4536 28.8388 15.4561C28.842 15.4609 28.8465 15.467 28.8515 15.4746C28.8616 15.4903 28.8757 15.512 28.8925 15.5391C28.9263 15.5933 28.9723 15.6706 29.0282 15.7676C29.1399 15.9614 29.2903 16.2381 29.4521 16.583C29.7742 17.2698 30.1512 18.2447 30.3583 19.3838C30.7658 21.6249 30.5071 24.5307 27.9032 27.0244C27.5811 28.77 26.4495 30.1903 24.9062 31.1865C23.0822 32.3638 20.633 33 17.9999 33C15.3668 33 12.9176 32.3638 11.0937 31.1865C9.55021 30.1903 8.41776 28.7701 8.09562 27.0244C5.49212 24.5308 5.23408 21.6248 5.64152 19.3838C5.84863 18.2447 6.22559 17.2697 6.54777 16.583C6.70957 16.2381 6.85992 15.9614 6.9716 15.7676C7.02748 15.6706 7.07356 15.5932 7.10734 15.5391C7.12416 15.5121 7.13821 15.4903 7.14835 15.4746C7.15327 15.467 7.15786 15.4609 7.16105 15.4561C7.16263 15.4536 7.16382 15.4509 7.16496 15.4492L7.16789 15.4463C7.17406 15.4499 7.24149 15.4944 7.99992 16L7.16789 15.4463C7.37147 15.141 7.72632 14.9704 8.09171 15.0039C8.45689 15.0376 8.77335 15.2694 8.91789 15.6064C8.91789 15.6064 8.92076 15.609 8.92179 15.6113C8.92399 15.6164 8.92767 15.6247 8.93253 15.6357C8.94241 15.6581 8.95727 15.6929 8.97746 15.7373C9.01809 15.8267 9.07872 15.9576 9.15617 16.1162C9.31182 16.4349 9.53274 16.861 9.79484 17.2979C10.0596 17.7392 10.3526 18.1677 10.6484 18.5029C10.884 18.7699 11.0737 18.9215 11.205 18.998L11.3163 19.0518L11.412 19.0889C11.4453 19.1039 11.4769 19.1215 11.5077 19.1396C12.1231 18.6787 12.794 18.2872 13.4999 17.9707V14.4082C13.4999 14.1603 13.3901 13.8611 13.1435 13.5215C12.4251 12.5329 11.9999 11.3149 11.9999 10C11.9999 6.68629 14.6862 4 17.9999 4ZM17.9999 19C13.8776 19 9.99995 21.8324 9.99992 26C9.99992 27.3713 10.7567 28.588 12.1786 29.5059C13.5224 30.3732 15.4089 30.9273 17.5653 30.9932L17.9999 31C20.3371 31 22.3879 30.431 23.8212 29.5059C25.2431 28.588 25.9999 27.3713 25.9999 26C25.9999 21.8325 22.1222 19.0001 17.9999 19ZM8.02433 18.2324C7.86071 18.6776 7.70979 19.1886 7.60929 19.7412C7.37494 21.0301 7.41422 22.5301 8.23234 23.9922C8.54483 22.6884 9.15757 21.545 9.97355 20.5801C9.65601 20.3577 9.37886 20.0864 9.14835 19.8252C8.74125 19.3637 8.37756 18.8231 8.08 18.3271C8.0611 18.2957 8.04281 18.2637 8.02433 18.2324ZM27.9198 18.3271C27.6223 18.8231 27.2586 19.3637 26.8515 19.8252C26.6206 20.0869 26.3426 20.3585 26.0243 20.5811C26.8404 21.546 27.454 22.6884 27.7665 23.9922C28.5848 22.53 28.6249 21.0302 28.3905 19.7412C28.29 19.1886 28.1391 18.6776 27.9755 18.2324C27.957 18.2638 27.9388 18.2956 27.9198 18.3271ZM17.9999 6C15.7908 6 13.9999 7.79086 13.9999 10C13.9999 10.8777 14.2818 11.6867 14.7607 12.3457C15.1452 12.8749 15.4999 13.5821 15.4999 14.4082V17.2959C16.3241 17.1015 17.1666 17 17.9999 17C18.8332 17 19.6757 17.1015 20.4999 17.2959V14.4082C20.4999 13.582 20.8547 12.8749 21.2392 12.3457C21.718 11.6867 21.9999 10.8776 21.9999 10C21.9999 7.79092 20.209 6.00009 17.9999 6Z" fill="#745EF5"/>
</svg>
